D:\school\WTK\thesis\model\3dpredictsim\Results\batch_windlass\Pog_s1_tmt_bCst_d05_k800_WL20_ig24_pas_GRF.mot
nRows=20
nColumns=19

name D:\school\WTK\thesis\model\3dpredictsim\Results\batch_windlass\Pog_s1_tmt_bCst_d05_k800_WL20_ig24_pas_GRF.mot
datacolumns 19
datarows 20
range 0.5401434296 0.7453979328
endheader
time 	ground_force_vx	ground_force_vy	ground_force_vz	ground_force_px	ground_force_py	ground_force_pz	1_ground_force_vx	1_ground_force_vy	1_ground_force_vz	1_ground_force_px	1_ground_force_py	1_ground_force_pz	ground_torque_x	ground_torque_y	ground_torque_z	1_ground_torque_x	1_ground_torque_y	1_ground_torque_z
        0.5401434296	       89.1486488920	      418.3623664510	        3.6349967731	        0.3407125719	        0.0000000000	        0.0328745576	      -96.6566194546	       79.1181324648	      -32.0672590933	        0.8107543130	        0.0000000000	       -0.0419217937	        0.0000000000	        0.0000000000	        0.0000000000	        0.0000000000	        0.0000000000	        0.0000000000	
        0.5509462982	       60.8502896899	      322.3947919299	       12.1461174847	        0.3470847317	        0.0000000000	        0.0302675106	     -146.7232537150	      162.6355187415	      -72.5628256221	        0.8210582446	        0.0000000000	       -0.0407347444	        0.0000000000	        0.0000000000	        0.0000000000	        0.0000000000	        0.0000000000	        0.0000000000	
        0.5617491667	       29.3655743449	      218.7191885586	       13.0078720581	        0.3584326796	        0.0000000000	        0.0245812777	      -72.1503922612	      369.6119085129	      -28.0941269139	        0.8350715249	        0.0000000000	       -0.0414213897	        0.0000000000	        0.0000000000	        0.0000000000	        0.0000000000	        0.0000000000	        0.0000000000	
        0.5725520353	        9.9325879824	      155.6309535365	       13.0185464360	        0.3694277732	        0.0000000000	        0.0181210975	      -72.1023043425	      614.5247340306	        4.4569517680	        0.8429732495	        0.0000000000	       -0.0427279843	        0.0000000000	        0.0000000000	        0.0000000000	        0.0000000000	        0.0000000000	        0.0000000000	
        0.5833549039	        2.5592027995	      122.7366343906	       11.7498853152	        0.3691965736	        0.0000000000	        0.0182620171	      -96.6334053724	      803.7117900719	       13.3978325985	        0.8501212705	        0.0000000000	       -0.0432262486	        0.0000000000	        0.0000000000	        0.0000000000	        0.0000000000	        0.0000000000	        0.0000000000	
        0.5941577725	       -3.0881727088	       81.0567389271	        9.9774786038	        0.3693989298	        0.0000000000	        0.0182553986	     -125.1708826882	      913.8530762250	       14.7980628927	        0.8584050422	        0.0000000000	       -0.0430042666	        0.0000000000	        0.0000000000	        0.0000000000	        0.0000000000	        0.0000000000	        0.0000000000	
        0.6049606411	       -9.9969324338	       31.9835646038	        5.4808206583	        0.3685485730	        0.0000000000	        0.0182300462	     -128.8733985675	      943.7240910156	       14.0334276908	        0.8657784760	        0.0000000000	       -0.0423137527	        0.0000000000	        0.0000000000	        0.0000000000	        0.0000000000	        0.0000000000	        0.0000000000	
        0.6157635097	        0.1039424269	       -0.1058713927	       -0.0057505394	        0.0000000000	        0.0000000000	        0.0000000000	     -117.4554706772	      907.3214357277	       13.2226165247	        0.8700279717	        0.0000000000	       -0.0417770890	        0.0000000000	        0.0000000000	        0.0000000000	        0.0000000000	        0.0000000000	        0.0000000000	
        0.6265663783	        0.0001293963	       -0.0001089656	        0.0000031791	        0.0000000000	        0.0000000000	        0.0000000000	      -99.6656375683	      845.8966589673	       13.6923172928	        0.8732088187	        0.0000000000	       -0.0413746838	        0.0000000000	        0.0000000000	        0.0000000000	        0.0000000000	        0.0000000000	        0.0000000000	
        0.6373692469	        0.0000189190	       -0.0000137744	        0.0000009262	        0.0000000000	        0.0000000000	        0.0000000000	      -84.2645546311	      786.5743527789	       14.4104058573	        0.8762337128	        0.0000000000	       -0.0410992120	        0.0000000000	        0.0000000000	        0.0000000000	        0.0000000000	        0.0000000000	        0.0000000000	
        0.6481721155	        0.0000791674	       -0.0000515176	        0.0000048602	        0.0000000000	        0.0000000000	        0.0000000000	      -71.0646369132	      737.3428529553	       14.8977710822	        0.8792096995	        0.0000000000	       -0.0409372069	        0.0000000000	        0.0000000000	        0.0000000000	        0.0000000000	        0.0000000000	        0.0000000000	
        0.6589749841	        0.0018803670	       -0.0011202946	        0.0001309714	        0.0000000000	        0.0000000000	        0.0000000000	      -59.3287247788	      697.4583216762	       15.9335862017	        0.8823266073	        0.0000000000	       -0.0408520676	        0.0000000000	        0.0000000000	        0.0000000000	        0.0000000000	        0.0000000000	        0.0000000000	
        0.6697778527	       -0.0145339173	        0.0080643849	       -0.0011089808	        0.0000000000	        0.0000000000	        0.0000000000	      -49.2001093098	      664.7251535799	       16.9101405260	        0.8856761366	        0.0000000000	       -0.0408275122	        0.0000000000	        0.0000000000	        0.0000000000	        0.0000000000	        0.0000000000	        0.0000000000	
        0.6805807213	       -0.0183528087	        0.0095994786	       -0.0015087799	        0.0000000000	        0.0000000000	        0.0000000000	      -40.1696745981	      638.8871844438	       18.2432429941	        0.8898968843	        0.0000000000	       -0.0408167785	        0.0000000000	        0.0000000000	        0.0000000000	        0.0000000000	        0.0000000000	        0.0000000000	
        0.6913835898	       -0.0117867894	        0.0058604354	       -0.0010367628	        0.0000000000	        0.0000000000	        0.0000000000	      -33.9754760790	      619.6072110182	       19.6465853684	        0.8949897295	        0.0000000000	       -0.0407807237	        0.0000000000	        0.0000000000	        0.0000000000	        0.0000000000	        0.0000000000	        0.0000000000	
        0.7021864584	       -0.0088045487	        0.0041897568	       -0.0008197515	        0.0000000000	        0.0000000000	        0.0000000000	      -29.5128699218	      605.6586860768	       20.3622427439	        0.9004135102	        0.0000000000	       -0.0407270239	        0.0000000000	        0.0000000000	        0.0000000000	        0.0000000000	        0.0000000000	        0.0000000000	
        0.7129893270	       -0.0085378120	        0.0039100210	       -0.0008309900	        0.0000000000	        0.0000000000	        0.0000000000	      -25.7341950271	      596.1549983072	       20.8404879356	        0.9061500211	        0.0000000000	       -0.0406436645	        0.0000000000	        0.0000000000	        0.0000000000	        0.0000000000	        0.0000000000	        0.0000000000	
        0.7237921956	       -0.0108045179	        0.0047830423	       -0.0010843924	        0.0000000000	        0.0000000000	        0.0000000000	      -22.9421376643	      589.6479568751	       20.7146729455	        0.9119953416	        0.0000000000	       -0.0405344663	        0.0000000000	        0.0000000000	        0.0000000000	        0.0000000000	        0.0000000000	        0.0000000000	
        0.7345950642	       -0.0170726164	        0.0073337974	       -0.0017419138	        0.0000000000	        0.0000000000	        0.0000000000	      -21.1306311767	      585.7269087459	       20.1376560336	        0.9177881958	        0.0000000000	       -0.0404051228	        0.0000000000	        0.0000000000	        0.0000000000	        0.0000000000	        0.0000000000	        0.0000000000	
        0.7453979328	       -0.0315074200	        0.0131812837	       -0.0032330310	        0.0000000000	        0.0000000000	        0.0000000000	      -19.8101818602	      583.8325468006	       19.3617984934	        0.9235009021	        0.0000000000	       -0.0402549352	        0.0000000000	        0.0000000000	        0.0000000000	        0.0000000000	        0.0000000000	        0.0000000000	
